<svg id="Слой_1" data-name="Слой 1" xmlns="http://www.w3.org/2000/svg" viewBox="0 0 102.72 126.61"><path d="M918.38,506.36c-2.82,1.19-4.15.93-6.21-1.19-1-1.09-2.09-2.2-3.1-3.33a3.84,3.84,0,0,1,0-5.42q6.27-6.36,12.67-12.57c1.55-1.5,2.91-1.75,4.53-.46a37.44,37.44,0,0,1,5.44,5.46c1.13,1.36.67,3-.28,4.42,1.31.72,2.16.16,3.09-.79,3.79-3.89,7.65-7.71,11.49-11.56a11.74,11.74,0,0,1,8.59-3.6c12.33,0,24.66-.08,37-.07a54.91,54.91,0,0,1,8.71.37,12.6,12.6,0,0,1,10.37,12.46q0,50.52,0,101A13,13,0,0,1,998,603.82q-34.95.07-69.92,0c-6.2,0-11.75-5.37-12.31-11.72-.09-1-.13-2-.13-3q0-34,0-68a21.77,21.77,0,0,1,3-11.45C919.35,508.38,918.49,507.5,918.38,506.36Zm2.41-2.15.22.06c3.47.6,4.72,3.52,2.79,6.4a16.34,16.34,0,0,0-3.06,9.41c.08,6.64,0,13.28,0,19.92q0,25.26,0,50.51c0,5,3.38,8.29,8.39,8.29h60.35c2.75,0,5.51,0,8.26,0a7.94,7.94,0,0,0,7.72-6.44,28.39,28.39,0,0,0,.31-4.42q0-26.28,0-52.56c0-14.68,0-29.36,0-44a8.65,8.65,0,0,0-9-9c-13.81.14-27.62.08-41.43,0A8.28,8.28,0,0,0,949,485c-4.5,4.64-9.1,9.2-13.67,13.78-1.44,1.44-2.71,1.43-4.17.06-1-.92-2-1.82-1.81-3.23Zm3.56-15.8.27.34L913.86,499.1l2,2,10.82-10.63L925,488.94Z" transform="translate(-907.93 -477.25)"/><path d="M934.47,579.77a8.59,8.59,0,0,1,1-1.52c3.47-3.54,7-7,10.49-10.53.73-.73,1.24-1.39.74-2.51a4.63,4.63,0,0,1,0-1.67c0-7,0-14,0-21a15.52,15.52,0,0,0,.19-2,3.64,3.64,0,0,0-.74-2c-3.31-3.42-6.71-6.74-10.06-10.12a8.25,8.25,0,0,1-1.35-1.66,2.46,2.46,0,0,1,.6-3,2.1,2.1,0,0,1,2.94.17c1.46,1.36,2.85,2.8,4.26,4.21,2.29,2.29,4.56,4.6,6.87,6.86.33.31,1,.67,1.3.55,3.12-1.16,6.38-.94,9.59-1,3.75-.06,7.5,0,11.25.16a19.13,19.13,0,0,1,3.86.71,1.79,1.79,0,0,0,2-.53c3.52-3.6,7.09-7.16,10.66-10.71,1.55-1.54,3.59-1.08,4.12.89a2.51,2.51,0,0,1-.85,2.58c-3.42,3.42-6.82,6.86-10.27,10.24-1.29,1.27-2.19,2.55-1.36,4.44a2.9,2.9,0,0,1,0,1.07q0,10,0,19.91a2.92,2.92,0,0,1,0,.84c-.56,1.58.19,2.68,1.24,3.72q5,4.95,9.91,9.92a6.19,6.19,0,0,1,1.09,1.41,2.24,2.24,0,0,1-.34,2.85,2.43,2.43,0,0,1-3.28-.06c-.57-.5-1.07-1.08-1.61-1.61-3.17-3.16-6.35-6.31-9.49-9.49a1.42,1.42,0,0,0-1.73-.34,20.53,20.53,0,0,1-5.23,1c-4.94.1-9.89,0-14.84-.07a17.34,17.34,0,0,1-4.2-.76,1.64,1.64,0,0,0-1.89.46q-5.05,5.11-10.16,10.18a5.2,5.2,0,0,1-1.41,1.08C936.1,583.16,934.41,582,934.47,579.77Zm40.26-26.68q0-4.86,0-9.72c0-2.85-.87-3.72-3.72-3.73H955.33c-2.77,0-3.71.86-3.73,3.63-.05,6.6,0,13.19,0,19.79,0,2.45.92,3.35,3.34,3.36q8.25.06,16.51,0c2.43,0,3.27-.91,3.28-3.38C974.74,559.72,974.73,556.4,974.73,553.09Z" transform="translate(-907.93 -477.25)"/><path d="M971.35,505.42H951.72a3.66,3.66,0,0,1-3.68-1.95,3.74,3.74,0,0,1,.54-4.35c2.46-3,4.88-6,7.39-8.94,1.17-1.38,2.85-1.66,4.58-1.66H984c2.32,0,4.63,0,6.94,0,3.4,0,5.08,1.74,5.09,5.1v7.08a4.38,4.38,0,0,1-4.7,4.73c-6.66,0-13.32,0-20,0Zm19.53-11.78h-1.56c-9.13,0-18.26.07-27.39,0a4.17,4.17,0,0,0-3.86,1.78c-1.19,1.66-2.55,3.21-3.93,4.92h36.74Z" transform="translate(-907.93 -477.25)"/></svg>