<svg id="Слой_1" data-name="Слой 1" xmlns="http://www.w3.org/2000/svg" viewBox="0 0 759.1 815.92"><path d="M747.63,237.61c8-7.13,15.74-14.28,23.71-21.23,13.32-11.63,26.77-23.1,40.12-34.7,7.39-6.42,14.7-13,22-19.46,8.29-7.37,18-12.3,28.29-16.08,14-5.13,28.55-5.7,43.22-5.67q54.74.09,109.48,0c58.66-.11,117.31-.53,176-.32,15.77,0,31.7.8,47.22,3.31,9.71,1.56,19.17,6.27,28.07,10.86,18.3,9.41,31.38,24.28,40.14,42.72a65.92,65.92,0,0,1,6.16,28.5q0,322,0,643.92c0,14.25-4.86,26.88-11.84,39-8.9,15.5-22.09,26.25-37.29,34.92C1246,953.06,1227.47,956,1208.32,956q-248.71,0-497.43-.12c-10.74,0-21.83-.63-32.13-3.34-14-3.71-27.13-10.17-38.21-20.26-11.6-10.56-20.92-22.69-27.18-37a47.79,47.79,0,0,1-4.23-17.15c-4.74-151.38-1-302.81-2-454.22a119,119,0,0,1,11.73-53.39c3.39-6.92,7.45-13.51,11-20.35.76-1.46.75-3.32,1.1-5a22.57,22.57,0,0,0-4.94-.43c-14,1.9-26.67-.4-37.4-10.47-9.91-9.29-20.68-17.72-30-27.58-3.49-3.71-4.68-10.25-5.45-15.7-1.75-12.35,2.91-22.43,12.8-30.1,2.1-1.62,3.88-3.65,5.87-5.41,19.4-17.06,38.73-34.2,58.24-51.13,9.37-8.12,19-16,28.68-23.7a32.69,32.69,0,0,1,39.86-.43c10.08,7.81,20.37,15.44,29.74,24.05,7.08,6.5,14.75,13.06,17.19,23.18C746.43,230.65,746.92,233.9,747.63,237.61Zm-75.17,76.63c3.94,3.46,7.73,6.39,11.06,9.78,7.42,7.57,10.73,19.2,5,30.29A240.34,240.34,0,0,1,673,380.15c-7.76,11.29-10.7,24.3-10.74,37.11q-.67,223.74,0,447.5c0,7,2.58,14.88,6.22,21,8.76,14.7,23.46,21,39.8,21.06q249.5.43,499,.3c10.77,0,20.67-1.93,29.79-7.48,11.2-6.82,18.63-16.38,19.86-29.78.71-7.75,1-15.57,1-23.36q.07-307.5.06-615c0-10.13-4.88-18.37-11.35-25-11.71-12-27.2-16.87-43.59-17.11-17.73-.25-35.48,1.73-53.21,1.5-61.9-.77-123.8,1.73-185.72-1.34-23.62-1.17-47.5-2.17-71.21,1.34-10.33,1.53-19.46,5.2-27.29,11.87-9.34,7.94-18.3,16.35-27.52,24.45-13.07,11.49-26.23,22.89-39.35,34.33-12.71,11.09-25.33,22.3-38.17,33.24-10.09,8.59-27.24,6.73-36.05-1.71-4.31-4.12-8.89-8-13.88-12.41Z" transform="translate(-552.92 -140.09)"/><path d="M1170.1,454.44c.22,5.15-1.87,8.76-5.3,11.75-25.61,22.27-51.31,44.45-76.75,66.92a38.82,38.82,0,0,0-9.14,12.14c-1.46,3.07-.85,7.28-.63,11,.26,4.24,1.63,8.44,1.64,12.65q.21,61.76,0,123.5a81.84,81.84,0,0,1-1,10.33c-.82,6.44,2,11.24,6.63,15.28q25.7,22.56,51.4,45.1c8.24,7.24,16.71,14.28,24.52,22,3.55,3.49,7.12,8,8.33,12.63,2.79,10.73-9.33,20.17-20.81,15.74-6.39-2.46-12-7.46-17.34-12.06q-34-29.36-67.59-59.22c-5.29-4.7-10.36-6-17.25-3.75-14,4.44-28.55,6-43.22,6-32.49-.05-65,.14-97.48-.58-10.48-.23-21-2.72-31.33-4.73-5.84-1.13-10.64-.6-15.27,3.47Q822.88,774.85,786,806.91c-9.47,8.23-17.8,9.6-25.79,4.64s-10.15-14.14-3.72-20.89c8.12-8.53,17-16.31,25.89-24.11q26.58-23.46,53.5-46.51c5.81-5,7.36-10.29,5.14-17.65-1.12-3.73,0-8.11,0-12.2q0-61.76.05-123.5c0-6.12.61-12.25,1-18.37.4-5.85-2.27-10.41-6.36-14-19.41-17.22-39-34.24-58.43-51.44-7-6.16-13.94-12.35-20.41-19-5.26-5.41-5.3-12.49-1.12-18.23s13.18-8.9,19-5.36c6.62,4,12.64,9.12,18.53,14.2,21.42,18.49,42.82,37,63.9,55.87,6.24,5.59,12.22,6.61,20.32,4.75a168,168,0,0,1,32.45-4.16c24-.72,48-.73,72-.55,15.79.12,31.59.78,47.35,1.77,6.2.4,12.38,2.1,18.43,3.69s11.18.52,16-3.8q38-33.58,76.22-66.78c5.66-4.9,12.2-8,20.16-4.86C1166.47,442.93,1170.12,448,1170.1,454.44ZM877,627.32c0,21.83-.06,43.66,0,65.49,0,10.08,4.61,16.12,13.36,17.69a71.68,71.68,0,0,0,12.38,1.25q57.74.13,115.48,0a72.48,72.48,0,0,0,12.37-1.27c7.08-1.26,11.68-5.58,12-12.71.58-11.57.29-23.18.3-34.78,0-32.66-.27-65.33.13-98,.18-14.72-5.55-21.79-20.36-21.83q-62.24-.21-124.48,0c-15.49.05-21.23,6.16-21.24,21.68Q877,596.07,877,627.32Z" transform="translate(-552.92 -140.09)"/><path d="M1020.64,326.66H944.18c-23.82,0-47.65.06-71.47,0-14.12-.06-26.62-11.82-25.64-24.9a23.74,23.74,0,0,1,5.61-13.33c17.73-19.42,36-38.31,54.05-57.46,9.27-9.85,21.21-11.59,33.78-11.59q92,0,183.94,0c14.33,0,28.67-.26,43,.44,18.32.9,30.49,12.12,30.1,31.76-.3,15.15-.5,30.33.06,45.47.59,16.21-14.35,29.38-29.49,29.33-47.48-.13-95-.05-142.45-.05h-5ZM896,293.54h264.71c0-12-.23-23.67.11-35.29.13-4.72-1-6.23-6-6.19-35.16.27-70.32.28-105.48.28q-50.74,0-101.48-.19c-8.41,0-15.79,2.58-21.63,8.59-6,6.19-11.67,12.75-17.51,19.12C904.73,284.19,900.7,288.46,896,293.54Z" transform="translate(-552.92 -140.09)"/></svg>