<svg id="Слой_1" data-name="Слой 1" xmlns="http://www.w3.org/2000/svg" viewBox="0 0 641.53 835.35"><path d="M650.71,788.47c1-39.46,13.55-59.17,44.72-71.17.87-7.84,1-15.51,2.65-22.83,6.26-27.55,22.66-45.18,51.33-49.29,7.82-1.12,12.1-4.07,15.64-11.47,12-25,32.64-41.61,56.26-54.9,3-1.69,4.44-3.36,4.82-7.06,1.89-18.12,12-29.86,29.69-34.61,3.29-.89,3.12-2.73,3.12-5.11q0-36.75,0-73.49c0-18.66.22-37.33.2-56,0-2-.29-4.5-1.45-6-5.64-7.44-7.24-16-7.41-24.93-.24-12.83-.08-25.67.1-38.5.05-3-1-4.72-3.43-6.51-25.46-18.7-42.37-43.21-50.72-73.82-9.47-34.71-6.25-68,10.57-99.68C827.47,114.21,859.08,90.14,903,82.8c48.37-8.08,89.18,6.28,122.72,41.33,20.6,21.52,31.44,47.78,34.46,77.42,2.83,27.73-1.3,54.19-14.18,78.94a129.33,129.33,0,0,1-39.38,45.16c-3.4,2.47-4.54,5.07-4.44,9.12.28,11.33.14,22.66.2,34,.05,9.67-1.69,18.82-7.19,27.06a9.89,9.89,0,0,0-1.15,5.16c-.09,14.33-.06,28.67-.06,43v92.65c10.69,1.71,19.71,6.34,25.1,15.23,3.76,6.21,5.92,13.6,7.66,20.73.78,3.18,1.83,4.79,4.48,6.2,20.61,11,38.28,25.38,50.8,45.39a153.09,153.09,0,0,1,8.21,15.38c1,2.16,1.93,3.26,4.58,3.46,36.36,2.75,59.92,29.18,61.48,64.65.32,7.31,2,9.74,8.49,12.73,20.32,9.28,32,26.05,36,47.87,1.2,6.43,1.08,13.12,1.59,20.11,16.44,5.43,29.1,16.59,37.32,32.39,21.94,42.14-8.76,95.1-57.3,95.09q-255.72,0-511.44.09a65.75,65.75,0,0,1-65.08-57.49c-4-32.48,16.33-60.27,42.62-69.2C649.31,789,650.06,788.71,650.71,788.47Zm310.23-417.4v-5.61c0-16.16,0-32.33-.07-48.49,0-7.42,2.35-13.1,9.29-16.81,35.9-19.19,55.57-60.47,48.35-101-10-56.14-68.22-91.21-122-72.7-37.71,13-58.76,41.27-63.34,79.84-4.73,39.85,12.39,70.93,46.5,92,9.26,5.72,12.77,12.73,12.27,23.43-.74,15.79-.24,31.65-.23,47.48a6.45,6.45,0,0,0,.63,1.87ZM926.23,874.49v-.07h105q75.22,0,150.45-.06c11.28,0,20.09-6.5,23.22-16.91,3-9.94-.54-21.7-9.72-26.54a42.46,42.46,0,0,0-19.05-4.33q-245.67-.35-491.33-.14a147.18,147.18,0,0,0-18.43,1c-12.29,1.55-21.17,13.74-19.34,26,1.89,12.73,10.83,20.82,23.83,21,16,.23,32,.11,48,.11Zm-.09-71.17q105.23,0,210.44,0a23.94,23.94,0,0,0,2.28-47.78c-3-.29-6-.34-9-.34q-199.7,0-399.4,0c-5.33,0-10.67.1-16,.5-9.58.72-16.85,5.14-20.43,14.33-6.59,17,4.8,33.29,23.12,33.3Q821.67,803.35,926.14,803.32Zm.37-119.22q-80.22,0-160.45,0a55.65,55.65,0,0,0-8.47.44c-14.12,2.2-23.31,17.49-18.64,30.85,3.52,10.06,13.79,17,25.21,17l324.4-.09c1,0,2,0,3,0,13-.6,22.38-9.57,23.72-22.6,1.11-10.89-7.57-22.53-18.87-24.87a52,52,0,0,0-10.45-.71Q1006.23,684.07,926.51,684.1Zm128-23.07a22.57,22.57,0,0,0-.85-3.38c-5.9-13-14.52-24.08-26.05-32.19-9.68-6.82-20.38-12.32-31-17.6-9-4.45-10.79-6.28-10.66-16.18.05-3.33-.22-6.68.08-10,.35-4-1.18-5.14-5.11-5.09-15.32.2-30.65.08-46,.08-21,0-42,.1-63-.09-4.23,0-5.62,1.37-5.33,5.46s.67,8.45-.13,12.45a21.43,21.43,0,0,1-4.78,9.78c-2.08,2.3-5.56,3.48-8.6,4.73-17.19,7.09-32.13,17.26-43.88,31.8-4.77,5.9-8.93,12.17-10.64,20.22ZM951.16,395H901.58V552.89h49.58Z" transform="translate(-605.44 -80.61)"/><path d="M1001.39,213.18c-.43,10.14-3.23,14.66-9.12,15.7-6.24,1.1-11.36-1.87-12.93-8-1.28-5-1.87-10.11-2.9-15.14-4.49-21.91-21.6-37.54-43.91-40.16-2.31-.28-4.63-.5-6.93-.87-7.05-1.14-11.55-6-11.05-11.87s5.62-10.31,12.51-10.46c16.27-.37,30.69,5,43.54,14.61q26.92,20.21,30.65,53.78C1001.37,211.89,1001.38,213.05,1001.39,213.18Z" transform="translate(-605.44 -80.61)"/></svg>