<svg id="Слой_1" data-name="Слой 1" xmlns="http://www.w3.org/2000/svg" viewBox="0 0 690.22 910.68"><path d="M1239.54,862.83c11.65.76,22.31,1.83,31.9,7.86,18.54,11.63,29.55,33.92,26,53.5-4.38,24.32-20.79,41.77-43.67,46.4a25.24,25.24,0,0,1-3.47.39c-1,.07-2,0-3,0q-209.49.09-419,.16c-55.5,0-111-.69-166.48.11-24.61.35-47.61-18.78-52.75-42.6A53.82,53.82,0,0,1,654.6,864c3.63-.47,7.27-.81,11.67-1.29-9.69-18.86-9.25-37.37,1.83-55.42,11.32-18.45,28.79-25.13,49.9-25.54l-2.84-6.76c-10.71-25.48,3-53.43,17.78-63.71,8.54-5.94,18.34-7.61,28.21-9.17,6.07-1,12.19-1.57,18.54-2.37,5.2-19.9,15.74-36.61,30.7-50.49A159.19,159.19,0,0,1,854,620.44c4-1.78,5.69-4,5.1-8.32a61.13,61.13,0,0,1-.1-6.5c-.51-15,9.31-25.81,24.37-26.59,4.28-.22,8.59,0,13.24,0,.11-2.16.26-3.77.26-5.38q.1-87.5.25-175c0-3.41-.78-5.89-3.37-8.27-5.24-4.81-6.9-11.19-6.87-18.12.06-18,0-36,.26-54,.07-4.27-1-6.86-4.85-9.2-58.66-35.77-76.08-111-53.12-164.15,22.4-51.8,61.94-80.6,119-84.09,63.76-3.9,129.57,45.53,136.92,117.71,5.75,56.54-15.54,100.67-63.12,132a7.61,7.61,0,0,0-2.8,5.53c-.16,18.17-.1,36.33.08,54.49.08,8.23-2.16,15.36-8.11,21.28a7.33,7.33,0,0,0-1.85,4.77q-.13,89.49-.07,179c0,1,.16,1.92.24,2.9,6.21.43,12.28.16,18,1.38,13.19,2.81,20.27,12.65,19.67,26.12-.53,11.94-.44,11.77,9.77,16.8,26.8,13.2,49.13,31.25,62.39,58.8a149.67,149.67,0,0,1,6.35,15.72c.94,2.68,2.32,3.45,5.06,3.56,7.31.29,14.76.24,21.88,1.65,31.72,6.28,50.51,42.35,38.22,72.72-.8,2-1.68,3.92-2.73,6.37,21,.49,38.49,7.06,49.79,25.49C1248.85,825.08,1249.5,843.47,1239.54,862.83Zm-247.71-492c0-21.18.11-41.83-.05-62.47-.07-8.51,3-14.57,10.92-18.46a89.78,89.78,0,0,0,27.87-21.58c47.23-54,34.56-132.42-27-167.48-49.4-28.1-127.2-13-152.3,63.47-15.41,47,6.79,100.42,50.45,124.57,9,5,12.94,11.28,12.64,21.52-.55,18.31-.25,36.65-.31,55v5.46ZM953,943.83V944h5.5l285-.17h1a26.59,26.59,0,0,0,26.06-22.48c2.06-12.39-5.83-25.64-18-29.34a48.29,48.29,0,0,0-13.77-1.77q-280.48-.12-561,0c-6.15,0-12.31.31-18.45.75a26,26,0,0,0-23.45,20.49C632.08,929,644.78,944,663.52,944q136.49,0,273-.16Zm.55-80.85v0h1q120-.09,239.91-.21c16.17,0,28.62-18,23.65-33.78-4.25-13.45-13.65-19.83-29.33-19.83q-230.93,0-461.85,0c-5.32,0-10.65.28-15.94.73-14.74,1.23-24.36,12.51-24,27.88.33,13.19,12.16,25,25.63,25.14,17,.18,34,0,51,0Zm-1.1-81q93.7,0,187.4,0c21.26,0,34-20.88,24.15-39.73-5.57-10.64-15.34-14.08-26.74-14.08H889.37c-40.81,0-81.62-.07-122.43,0-16.34,0-27.89,11.79-28.17,27.49-.21,11.7,12.54,26.69,28.27,26.54C828.84,781.66,890.64,782,952.44,782Zm67.47-175.45H886.17c0,5.2-.3,10.05.06,14.84.81,10.64-3.73,16.86-13.8,20.76-18.48,7.17-35,17.6-48.44,32.57-6.8,7.59-12.54,15.8-15.7,25.93h290.57c-4-6.88-7-13.4-11.16-19-14.61-19.49-34.4-32-56.82-40.77-8.54-3.35-11.2-7.76-11-16.86C1020,618.24,1019.91,612.46,1019.91,606.55ZM981.19,398.47H924.87V578.14h56.32Z" transform="translate(-607.9 -60.59)"/><path d="M1039.35,190.89c-.41,3.33-.52,5.83-1.06,8.24-1.79,8-6,11.33-13.56,10.93s-11.5-4.95-12.84-12.76c-1.51-8.78-2.32-18.11-6-26-9.8-20.9-27.09-32.12-50.19-34.12-1-.09-2-.07-3-.18-8.48-.94-14.19-6.92-13.68-14.27s6.64-12.64,15.17-12.74c38.17-.43,74.15,28.61,82.79,66.94C1038.06,181.78,1038.65,186.74,1039.35,190.89Z" transform="translate(-607.9 -60.59)"/></svg>