<svg id="Слой_1" data-name="Слой 1" xmlns="http://www.w3.org/2000/svg" viewBox="0 0 260.23 396.53"><path d="M959.79,738.62c-8.59-11.82-17-23-24.94-34.4-30.31-43.7-58.28-88.78-80.1-137.42-10.88-24.23-19.36-49.18-23.48-75.54-10.66-68.21,37.24-135.34,105.16-147.14,70.72-12.28,136.3,32.19,151,102.47,5.53,26.36,1.45,52-6.13,77.34-9.34,31.25-23.38,60.47-39.08,88.92a988,988,0,0,1-78,120.11C963,734.55,961.76,736.11,959.79,738.62Zm.2-34.79c1.58-2,2.68-3.28,3.59-4.66,16-24.16,32.63-47.89,47.7-72.6,20.64-33.87,38.28-69.33,50.18-107.35,6.56-21,11-42.29,7.21-64.41-10.08-59.32-62-98.4-121.83-91.94C893.48,368.62,851,415,850.06,468.64c-.45,24.8,6.62,48,15.5,70.74,22.33,57.14,54,109,89.9,158.51C956.8,699.73,958.22,701.52,960,703.83Z" transform="translate(-829.78 -342.09)"/><path d="M959.88,522a50,50,0,1,1,50.1-49.74A50.22,50.22,0,0,1,959.88,522Zm0-20A30,30,0,1,0,930,471.59,29.9,29.9,0,0,0,959.84,502Z" transform="translate(-829.78 -342.09)"/></svg>