<svg id="Слой_1" data-name="Слой 1" xmlns="http://www.w3.org/2000/svg" viewBox="0 0 736 980"><path d="M592,326V81c3.66-5.49,7-11.19,11-16.41,6-7.88,14.6-12,24-14.59h88c6.57,5.07,13.85,9.46,19.52,15.39,6.4,6.68,10.92,14.35,10.74,24.86-.46,26.25.4,52.53.76,78.79a19.64,19.64,0,0,0,.45,2.8c.94.06,1.6.15,2.25.15,41.5,0,83,0,124.49.12a5.68,5.68,0,0,0,5.61-3.71c5.59-11.84,14.82-20.5,24.77-28.43,20.55-16.4,44.07-23,70-18.81,29.74,4.77,52,21,67.4,46.82,1.62,2.72,3.28,4.14,6.83,4.13,40.5-.17,81-.11,121.49-.12,1.44,0,2.89-.15,4.54-.24.07-1.1.16-1.91.17-2.71q.51-39.64,1-79.29c0-2.17-.1-4.34,0-6.5a10.35,10.35,0,0,1,.83-3.75,61.94,61.94,0,0,1,16.21-20.92c4-3.28,8.59-5.75,12.92-8.58h93a5,5,0,0,0,1,1c9.94,5.74,19.07,12.31,24.53,22.91,1.15,2.22,3,4.09,4.5,6.12V325c-5.38,7.89-9.48,16.83-17.84,22.3-5.23,3.42-9.64,8.65-16.55,8.67q-42.24.12-84.5,0a10,10,0,0,1-4.72-.9c-10-5.56-19.14-12.16-25-22.33-1.76-3.05-4.08-6.38-4.21-9.67-.73-18.08-.93-36.19-1.16-54.29-.15-11.45,0-22.9,0-34.59-1.49-.08-2.45-.18-3.41-.17-39.1.32-78.2.71-117.3.91-3.54,0-4.41,1.94-5.31,4.58q-13.92,40.72-53.3,58.15c-2.47,1.09-3.77,2.2-3.77,5.33q.15,241.49,0,483c0,3.11.94,4.83,3.78,6,10.23,4.33,19.08,10.72,27.14,18.32a111.84,111.84,0,0,1,25.49,35.4h126.4c.11-.9.23-1.53.24-2.17q.52-38.89,1-77.8c0-2.83-.06-5.67,0-8.5a5.92,5.92,0,0,1,.66-3.26c5.39-6.92,10.35-14.31,16.59-20.37,4.24-4.11,9.24-8.57,16-8.58q42.75-.1,85.5,0a10.19,10.19,0,0,1,5.19,1c5.08,3.24,10.62,6.18,14.74,10.43,5.39,5.57,9.59,12.27,14.31,18.49v245c-4.8,6.3-9.14,13-14.54,18.75-4.13,4.4-9.59,7.55-14.46,11.25h-95c-6.72-5.55-14-10.57-20-16.84-4-4.18-8.32-10-8.65-15.32-1.29-20.87-1.1-41.82-1.37-62.75-.11-8.59,0-17.19,0-26.09-41.93,0-83.22,0-124.5.11a4.75,4.75,0,0,0-3.42,2.49C1038.59,930,1025.59,944,1009.56,955c-16.22,11.14-34.54,15-54.25,14.23a88.08,88.08,0,0,1-47.21-15.65c-15-10.19-26-24-33.48-40.46-1.4-3.08-3.13-4.18-6.62-4.16-39,.14-78,.09-116.93.1-1.6,0-3.2.14-6.07.28v60.59q0,13.49,0,27c0,1.16.37,2.67-.21,3.44-5,6.73-9.86,13.7-15.57,19.84-3.69,3.95-8.76,6.62-13.21,9.86H621c-4.29-3.12-9.2-5.66-12.71-9.48-5.9-6.41-10.91-13.64-16.29-20.52V755c5.42-6.92,10.15-14.59,16.5-20.52,4.64-4.34,11.34-8.87,17.25-9.06,28.8-.93,57.65-.43,86.48-.38a7.22,7.22,0,0,1,4.14,1c6.64,5.06,13.86,9.66,19.42,15.74,4.2,4.59,8.55,11.06,8.81,16.88,1.23,27.39,1.06,54.85,1.41,82.28,0,1.6.14,3.2.22,4.77a15.45,15.45,0,0,0,1.87.28q60.75,0,121.5.1c2.71,0,3.37-1.44,4.59-3.34,6-9.35,11.54-19.05,18.5-27.62,8.49-10.44,19.91-17.57,32.21-23,3.35-1.47,4.17-3.35,4.16-6.75q-.1-240.73,0-481.47c0-3.53-1-5.44-4.26-6.54-11.27-3.83-20.52-11-28.84-19.07-12.58-12.24-22.1-26.54-25.31-44H746.26c-.1.9-.23,1.53-.24,2.17q-.53,34.16-1,68.3c-.08,5.83.06,11.67-.06,17.5a10.23,10.23,0,0,1-1,4.71c-4.84,8.44-10.2,16.51-18.49,22-6.27,4.18-12.4,7.47-20.76,7.25-25.81-.69-51.66-.25-77.49-.26-1.49,0-3.42.51-4.42-.22C616,350.8,609,346,602.9,340.25,598.6,336.21,595.59,330.8,592,326Z" transform="translate(-592 -50)"/></svg>