<svg id="Слой_1" data-name="Слой 1" xmlns="http://www.w3.org/2000/svg" viewBox="0 0 980 980"><path d="M1352,1030H568c-.51-.32-1-.87-1.52-.94A105.53,105.53,0,0,1,523.94,1014c-23.37-14.39-39.56-34.63-48.59-60.46-2.42-6.95-3.6-14.34-5.35-21.53V223a6.77,6.77,0,0,0,1-2c1.29-12.52,5.54-24.21,11.24-35.18a109.45,109.45,0,0,1,33-38.54c18.88-13.76,39.88-21.69,63.23-22.15,25-.49,50-.11,75-.11H659v6.09c0,23.33.14,46.66,0,70a69.53,69.53,0,0,0,13.74,42.72c16.87,22.63,39.54,34,68.53,31.29A72.6,72.6,0,0,0,786,254.24c15.23-14.78,22.62-33.43,22.89-54.61.3-23,.07-46,.07-69v-5.29h302c0,24.66-.15,49,0,73.28.14,16.71,4.53,32,14.61,45.85,15.17,20.8,35.86,30.72,60.87,31.26,13.06.28,25.63-3.53,37.18-10.57,24.66-15.06,36.8-37,37.22-65.57.34-23,.07-46,.07-69V125h6.06c25.16,0,50.33-.31,75.48.18a104.17,104.17,0,0,1,24.1,3.85,108.93,108.93,0,0,1,57.12,36.13c8.3,9.87,15,20.59,19.19,32.75,2.8,8.21,4.73,16.72,7,25.09V932c-.31.34-.84.65-.88,1-2.45,21-10.87,39.42-24.3,55.72-16.06,19.5-36.06,32.56-60.73,38.31C1360.05,1028,1356,1029,1352,1030ZM546,390.24v5.67q0,260.7.08,521.42a36.2,36.2,0,0,0,36.51,36.56q377.45.25,754.89,0c20.54,0,36.4-16.28,36.42-36.66q.25-260.7.1-521.42v-5.59Z" transform="translate(-470 -50)"/><path d="M1195,50c11.26,4,21,10,25.72,21.61a39.19,39.19,0,0,1,3.14,14.16c.25,38.5-.25,77,.32,115.49.25,16.88-13.27,33.57-30.85,37-19.61,3.86-38.93-9.2-43.48-25.9a41.53,41.53,0,0,1-1.77-10.55c-.13-37.66.05-75.33-.14-113-.08-17.22,10-32.54,27.06-37.82a12.17,12.17,0,0,0,2-1Z" transform="translate(-470 -50)"/><path d="M743,50c4.79,2.58,9.8,4.84,14.33,7.82,10,6.57,14.39,16.72,14.51,28q.61,58.74.06,117.48c-.14,17.08-14.85,32-30.1,34.83-13.39,2.5-24.91-.9-34.47-9.72-6.9-6.36-11.35-14.69-11.34-24.69,0-39.32.13-78.65,0-118-.08-15.39,12.23-31.32,28-34.86.38-.08.67-.6,1-.91Z" transform="translate(-470 -50)"/><path d="M920.76,747.22c8.84-12.94,17-24.74,25-36.61q31.77-47,63.47-94.13c13.82-20.41,27.85-40.68,41.68-61.08,18.48-27.27,36.83-54.64,55.33-81.9,6.7-9.88,21.88-12.48,32.09-5.66,13,8.7,26.13,17.26,38.92,26.29,9.21,6.51,13.34,20.77,5.24,32.82q-34.28,51-68.81,101.77c-13.65,20.13-27.47,40.14-41.1,60.27-20.59,30.39-41,60.86-61.62,91.25q-25.4,37.49-51,74.85c-7.27,10.6-16.92,17.55-30.31,16.79a38.73,38.73,0,0,1-24-9.84c-7.16-6.42-14.11-13.08-20.92-19.87Q828.81,786.39,773,730.49c-5.5-5.5-9.35-11.87-9-20a23.25,23.25,0,0,1,6.76-15.85q15.93-15.88,31.82-31.8a24.55,24.55,0,0,1,34.89.15q39.6,39.57,79.15,79.17C918,743.49,919,745,920.76,747.22Z" transform="translate(-470 -50)"/></svg>