<svg id="Слой_1" data-name="Слой 1" xmlns="http://www.w3.org/2000/svg" viewBox="0 0 910.03 980"><path d="M70,918V132a17.14,17.14,0,0,0,.76-2.33c6.5-37,31.85-59.66,66.86-59.66H264.67v70h-95C148.78,140,135,154.73,135,177.14V279.75H915V177.14c0-22.45-13.73-37.12-34.68-37.14h-95V70.18c.93-.08,1.56-.17,2.18-.17,43,0,86-.17,129.07.08,27.86.17,52.73,20.88,60.64,49.85,1.09,4,1.86,8,2.79,12.06V918a26.93,26.93,0,0,0-.84,2.82q-7.65,43.5-46.92,56.61c-3.2,1.08-6.5,1.72-9.81,2.57H127.57a20.45,20.45,0,0,0-2.6-.89c-27.15-5.52-44.62-22.67-52.76-51C71.26,924.83,70.72,921.38,70,918Zm65-567.8V872.44c0,22.85,13.62,37.56,34.78,37.56H880c21.46,0,35-14.62,35-37.86V350.2Z" transform="translate(-70 0)"/><path d="M321,0c1.84.67,3.68,1.35,5.53,2,13.61,4.77,23.3,17.38,23.36,31.78q.28,71.22,0,142.45c-.11,18.87-16.23,33.86-35.12,33.75-18.62-.1-34.52-15.13-34.63-33.75q-.39-71.22,0-142.45C280.16,19.23,290,6.57,304,1.85c1.7-.57,3.37-1.23,5-1.85Z" transform="translate(-70 0)"/><path d="M671,0c1.84.67,3.68,1.35,5.53,2,13.61,4.77,23.3,17.38,23.36,31.78q.29,71.22,0,142.45c-.11,18.87-16.23,33.86-35.12,33.75-18.62-.1-34.52-15.13-34.63-33.75q-.39-71.22,0-142.45C630.2,19.23,640.06,6.57,654,1.85c1.7-.57,3.37-1.23,5-1.85Z" transform="translate(-70 0)"/><path d="M420.36,70.22H559.73V139.6H420.36Z" transform="translate(-70 0)"/><path d="M422.64,719.64c12.09-13.75,24.51-27.86,36.91-42q107.94-123,215.89-246.07a33.63,33.63,0,0,1,47.42-3.63l.48.42C737.68,441,739,462.57,726.1,477.25q-32.25,36.86-64.6,73.63Q555.69,671.46,449.89,792.08c-14.38,16.39-36.06,17.4-51.4,1.91q-71.42-72.07-142.63-144.34c-19.05-19.37-11.71-50.39,13.55-57.88,13.39-4,25-.27,34.66,9.55,26.25,26.54,52.4,53.16,78.76,79.58C395.77,693.87,409.08,706.47,422.64,719.64Z" transform="translate(-70 0)"/></svg>