<svg id="Слой_1" data-name="Слой 1" xmlns="http://www.w3.org/2000/svg" viewBox="0 0 50.45 50.45"><defs><style>.cls-1{fill:#fff;}</style></defs><path d="M935,541.65V538.7l.12-1.06a25.24,25.24,0,0,1,20.72-22.25c.95-.17,1.91-.26,2.86-.39h2.95c.85.11,1.69.18,2.53.32a25.24,25.24,0,0,1,21,27.39,24,24,0,0,1-6.14,14.07,24.64,24.64,0,0,1-17.83,8.54,24,24,0,0,1-13.93-3.53,24.82,24.82,0,0,1-11.92-17.28C935.22,543.57,935.13,542.61,935,541.65Zm32.78-21.46a18.6,18.6,0,0,0-6.63-1.34v3.28h-2V518.8a20.58,20.58,0,0,0-6.85,1.46l1.3,3.12-.9.38-1.32-3.12a21.09,21.09,0,0,0-5.66,3.74l2.36,2.29-1.44,1.43-2.29-2.35a21.06,21.06,0,0,0-3.84,5.89l3.13,1.29-.37.9-3.13-1.26a20.12,20.12,0,0,0-1.36,6.65h3.33v1.95H938.8a20.73,20.73,0,0,0,1.46,6.86l3.12-1.31.38.91L940.64,549a21.42,21.42,0,0,0,3.77,5.69l2.28-2.33,1.43,1.43L945.8,556a21.15,21.15,0,0,0,28.82-.12l-2.32-2.28,1.38-1.39,2.34,2.36a21,21,0,0,0,3.8-5.85l-3.14-1.28.38-.91,3.13,1.27a20.8,20.8,0,0,0,1.36-6.64h-3.32v-2h3.32a20.87,20.87,0,0,0-1.45-6.85L977,533.63l-.38-.9,3.13-1.33a21.69,21.69,0,0,0-11-10.88l-1.3,3.15-.9-.37Z" transform="translate(-935 -515)"/><path class="cls-1" d="M935,541.65c.13,1,.22,1.92.39,2.86a24.82,24.82,0,0,0,11.92,17.28,24,24,0,0,0,13.93,3.53,24.64,24.64,0,0,0,17.83-8.54,24,24,0,0,0,6.14-14.07,25.24,25.24,0,0,0-21-27.39c-.84-.14-1.68-.21-2.53-.32h23.8v50.45H935Z" transform="translate(-935 -515)"/><path class="cls-1" d="M958.7,515c-1,.13-1.91.22-2.86.39a25.24,25.24,0,0,0-20.72,22.25L935,538.7V515Z" transform="translate(-935 -515)"/><path class="cls-1" d="M967.78,520.19l-1.26,3.11.9.37,1.3-3.15a21.69,21.69,0,0,1,11,10.88l-3.13,1.33.38.9,3.13-1.31a20.87,20.87,0,0,1,1.45,6.85h-3.32v2h3.32a20.8,20.8,0,0,1-1.36,6.64l-3.13-1.27-.38.91,3.14,1.28a21,21,0,0,1-3.8,5.85l-2.34-2.36-1.38,1.39,2.32,2.28a21.15,21.15,0,0,1-28.82.12l2.32-2.25-1.43-1.43-2.28,2.33a21.42,21.42,0,0,1-3.77-5.69l3.12-1.32-.38-.91L940.26,548a20.73,20.73,0,0,1-1.46-6.86h3.34v-1.95h-3.33a20.12,20.12,0,0,1,1.36-6.65l3.13,1.26.37-.9-3.13-1.29a21.06,21.06,0,0,1,3.84-5.89l2.29,2.35,1.44-1.43-2.36-2.29a21.09,21.09,0,0,1,5.66-3.74l1.32,3.12.9-.38-1.3-3.12a20.58,20.58,0,0,1,6.85-1.46v3.33h2v-3.28A18.6,18.6,0,0,1,967.78,520.19Zm5.39,7.06-.07-.07-.36.3-10.16,9c-.27.24-.48.36-.85.14a3,3,0,0,0-1-.31,3.85,3.85,0,1,0,1.78,6.89,3.78,3.78,0,0,0,1.2-4.62.49.49,0,0,1,.1-.64l9-10.24Zm-5.91,23.6H953.12v2.74h14.14Z" transform="translate(-935 -515)"/><path d="M973.17,527.25l-.42.5-9,10.24a.49.49,0,0,0-.1.64,3.78,3.78,0,0,1-1.2,4.62,3.85,3.85,0,1,1-1.78-6.89,3,3,0,0,1,1,.31c.37.22.58.1.85-.14l10.16-9,.36-.3Z" transform="translate(-935 -515)"/><path d="M967.26,550.85v2.74H953.12v-2.74Z" transform="translate(-935 -515)"/></svg>