<svg id="Слой_1" data-name="Слой 1" xmlns="http://www.w3.org/2000/svg" viewBox="0 0 50.3 50.36"><path d="M0,26.65V23.7l.12-1.06A25.24,25.24,0,0,1,20.84.39C21.79.22,22.75.13,23.7,0h2.95c.85.11,1.69.18,2.53.32a25.24,25.24,0,0,1,21,27.39A24,24,0,0,1,44,41.78a24.64,24.64,0,0,1-17.83,8.54,24,24,0,0,1-13.93-3.53A24.82,24.82,0,0,1,.36,29.51C.22,28.57.13,27.61,0,26.65ZM32.78,5.19a18.63,18.63,0,0,0-6.63-1.34V7.13h-2V3.8A20.63,20.63,0,0,0,17.3,5.26l1.3,3.12-.9.38L16.38,5.64a21,21,0,0,0-5.66,3.74l2.36,2.29L11.64,13.1,9.35,10.75a21.07,21.07,0,0,0-3.84,5.89l3.13,1.29-.37.9L5.14,17.57a19.92,19.92,0,0,0-1.36,6.65H7.11v2H3.8A20.74,20.74,0,0,0,5.26,33l3.12-1.31.38.91L5.64,34a21.27,21.27,0,0,0,3.77,5.69l2.28-2.33,1.43,1.43L10.8,41a21.16,21.16,0,0,0,28.82-.12L37.3,38.6l1.38-1.39L41,39.57a21,21,0,0,0,3.8-5.85l-3.14-1.28.38-.91,3.13,1.27a21,21,0,0,0,1.36-6.64H43.23v-2h3.32a20.67,20.67,0,0,0-1.45-6.85L42,18.63l-.38-.9,3.13-1.33a21.65,21.65,0,0,0-11-10.88l-1.3,3.15-.9-.37Z"/><path d="M38.17,12.25l-.42.5L28.75,23a.49.49,0,0,0-.1.64,3.78,3.78,0,0,1-1.2,4.62,3.85,3.85,0,1,1-1.78-6.89,2.91,2.91,0,0,1,1,.31c.37.22.58.1.85-.14l10.16-9,.36-.3Z"/><path d="M32.26,35.85v2.74H18.12V35.85Z"/></svg>